<?xml version="1.0" encoding="iso-8859-1"?>
<!-- Generator: Adobe Illustrator 19.0.0, SVG Export Plug-In . SVG Version: 6.00 Build 0)  -->
<svg version="1.1" id="Layer_1" xmlns="http://www.w3.org/2000/svg" xmlns:xlink="http://www.w3.org/1999/xlink" x="0px" y="0px"
	 viewBox="0 0 511.882 511.882" style="enable-background:new 0 0 511.882 511.882;" xml:space="preserve">
<path style="fill:#FC6E51;" d="M0,255.941c0,141.342,114.583,255.941,255.941,255.941c141.344,0,255.941-114.6,255.941-255.941
	C511.882,114.583,397.285,0,255.941,0C114.583,0,0,114.583,0,255.941z"/>
<g>
	<path style="fill:#E9573F;" d="M245.272,21.323c0,5.889,4.772,10.669,10.669,10.669c5.89,0,10.662-4.78,10.662-10.669
		c0-5.89-4.772-10.67-10.662-10.67C250.045,10.653,245.272,15.433,245.272,21.323z"/>
	<path style="fill:#E9573F;" d="M245.272,490.544c0,5.889,4.772,10.669,10.669,10.669c5.89,0,10.662-4.78,10.662-10.669
		c0-5.89-4.772-10.654-10.662-10.654C250.045,479.889,245.272,484.654,245.272,490.544z"/>
	<path style="fill:#E9573F;" d="M129.392,58.08c2.944,5.108,9.467,6.857,14.574,3.905c5.093-2.937,6.843-9.467,3.897-14.56
		c-2.944-5.107-9.466-6.842-14.566-3.905C128.197,46.458,126.447,52.987,129.392,58.08z"/>
	<path style="fill:#E9573F;" d="M364.01,464.456c2.937,5.092,9.467,6.842,14.56,3.905c5.107-2.953,6.857-9.467,3.904-14.575
		c-2.936-5.108-9.466-6.842-14.559-3.905C362.808,452.833,361.074,459.347,364.01,464.456z"/>
	<path style="fill:#E9573F;" d="M47.426,147.872c5.101,2.937,11.622,1.188,14.567-3.905c2.944-5.108,1.194-11.622-3.905-14.575
		c-5.101-2.937-11.623-1.187-14.567,3.905C40.577,138.405,42.326,144.92,47.426,147.872z"/>
	<path style="fill:#E9573F;" d="M453.787,382.474c5.108,2.952,11.623,1.203,14.574-3.905c2.938-5.093,1.188-11.623-3.904-14.56
		c-5.109-2.952-11.623-1.203-14.575,3.905C446.929,373.007,448.678,379.538,453.787,382.474z"/>
	<path style="fill:#E9573F;" d="M21.323,266.594c5.89,0,10.67-4.765,10.67-10.653c0-5.89-4.78-10.67-10.67-10.67
		c-5.889,0-10.661,4.78-10.661,10.67C10.662,261.83,15.434,266.594,21.323,266.594z"/>
	<path style="fill:#E9573F;" d="M490.545,266.594c5.904,0,10.669-4.765,10.669-10.653c0-5.89-4.765-10.67-10.669-10.67
		c-5.874,0-10.654,4.78-10.654,10.67C479.89,261.83,484.67,266.594,490.545,266.594z"/>
	<path style="fill:#E9573F;" d="M58.088,382.474c5.1-2.937,6.85-9.467,3.905-14.56c-2.945-5.108-9.467-6.857-14.567-3.905
		c-5.101,2.937-6.85,9.467-3.905,14.56C46.465,383.677,52.988,385.426,58.088,382.474z"/>
	<path style="fill:#E9573F;" d="M464.457,147.872c5.092-2.952,6.842-9.467,3.904-14.575c-2.951-5.092-9.466-6.842-14.574-3.905
		c-5.108,2.953-6.857,9.467-3.905,14.575C452.834,149.059,459.347,150.808,464.457,147.872z"/>
	<path style="fill:#E9573F;" d="M147.864,464.456c2.945-5.108,1.195-11.623-3.897-14.575c-5.107-2.937-11.63-1.203-14.574,3.905
		c-2.945,5.108-1.195,11.622,3.905,14.575C138.398,471.297,144.92,469.547,147.864,464.456z"/>
</g>
<path style="fill:#434A54;" d="M255.941,63.985c-5.896,0-10.669,4.764-10.669,10.653V251.52L120.207,376.585l0,0
	c-4.171,4.171-4.171,10.92,0,15.091c4.163,4.155,10.911,4.155,15.074,0l128.197-128.205l0,0c2.086-2.078,3.125-4.812,3.125-7.529
	l0,0V74.638C266.603,68.749,261.831,63.985,255.941,63.985z"/>
<path style="fill:#E9573F;" d="M382.474,58.095c2.953-5.108,1.203-11.638-3.904-14.575c-5.093-2.937-11.623-1.202-14.56,3.905
	c-2.937,5.093-1.202,11.623,3.905,14.56C373.008,64.937,379.539,63.188,382.474,58.095z"/>
<path style="fill:#F6BB42;" d="M502.994,362.573c-16.449-37.648-54.034-63.986-97.758-63.986c-43.725,0-81.311,26.338-97.76,63.986
	l-8.889,10.669v31.993c0,58.893,47.755,106.647,106.648,106.647c58.908,0,106.646-47.755,106.646-106.647v-31.993L502.994,362.573z"
	/>
<path style="fill:#FFCE54;" d="M511.882,373.242c0,58.893-47.738,106.647-106.646,106.647c-58.894,0-106.648-47.755-106.648-106.647
	s47.755-106.647,106.648-106.647C464.144,266.594,511.882,314.349,511.882,373.242z"/>
<path style="fill:#E8AA3D;" d="M405.236,330.58c-5.89,0-10.67,4.78-10.67,10.669v63.986c0,5.889,4.78,10.669,10.67,10.669
	c5.889,0,10.669-4.78,10.669-10.669v-63.986C415.905,335.36,411.125,330.58,405.236,330.58z"/>
<g>
</g>
<g>
</g>
<g>
</g>
<g>
</g>
<g>
</g>
<g>
</g>
<g>
</g>
<g>
</g>
<g>
</g>
<g>
</g>
<g>
</g>
<g>
</g>
<g>
</g>
<g>
</g>
<g>
</g>
</svg>
