<?xml version="1.0" encoding="iso-8859-1"?>
<!-- Generator: Adobe Illustrator 19.0.0, SVG Export Plug-In . SVG Version: 6.00 Build 0)  -->
<svg version="1.1" id="Layer_1" xmlns="http://www.w3.org/2000/svg" xmlns:xlink="http://www.w3.org/1999/xlink" x="0px" y="0px"
	 viewBox="0 0 503.322 503.322" style="enable-background:new 0 0 503.322 503.322;" xml:space="preserve">
<path style="fill:#B58024;" d="M251.661,60.746C199.593,60.746,153.6,37.315,130.169,0c0,34.712,34.712,198.725,121.492,198.725
	S373.153,34.712,373.153,0C349.722,37.315,303.729,60.746,251.661,60.746"/>
<path style="fill:#F4BA48;" d="M52.068,485.966c0,9.546,7.81,17.356,17.356,17.356h364.475c9.546,0,17.356-7.81,17.356-17.356
	V242.983c0-8.678-2.603-21.695-6.942-28.637c-20.827-43.39-36.447-129.302-36.447-196.99C407.864,7.81,400.054,0,390.508,0h-17.356
	c0,34.712-34.712,198.725-121.492,198.725S130.169,34.712,130.169,0h-17.356c-9.546,0-17.356,7.81-17.356,17.356
	c0,67.688-15.62,153.6-36.447,196.99c-4.339,6.942-6.942,19.959-6.942,28.637V485.966z"/>
<g>
	<path style="fill:#E8EDEE;" d="M52.068,320.217h399.186v-69.424H52.068V320.217z"/>
	<path style="fill:#E8EDEE;" d="M52.068,450.386h399.186v-69.424H52.068V450.386z"/>
	<path style="fill:#E8EDEE;" d="M242.983,250.793h17.356v-52.936h-17.356V250.793z"/>
	<path style="fill:#E8EDEE;" d="M242.983,380.963h17.356v-61.614h-17.356V380.963z"/>
	<path style="fill:#E8EDEE;" d="M242.983,499.851h17.356v-49.464h-17.356V499.851z"/>
</g>
<g>
</g>
<g>
</g>
<g>
</g>
<g>
</g>
<g>
</g>
<g>
</g>
<g>
</g>
<g>
</g>
<g>
</g>
<g>
</g>
<g>
</g>
<g>
</g>
<g>
</g>
<g>
</g>
<g>
</g>
</svg>
